# xmcd
#
# Track frame offsets:
#	150
#	12222
#	25977
#	38222
#	56560
#	74107
#	84582
#	101690
#	113170
#	123992
#	136462
#	148945
#	162467
#	174780
#	189030
#	206912
#	220262
#	233225
#	253467
#
# Disc length: 3618 seconds
#
# Revision: 5
# Processed by: cddbd v1.5.1PL2 Copyright (c) Steve Scherf et al.
# Submitted via: dBpowerAMP V4.0
#
DISCID=1d0e2013
DTITLE=Various Artist - Singer-Songwriter - Disc 2
DYEAR=1900
DGENRE=Country
TTITLE0=Dave Dudley - Vietnam Blues
TTITLE1=Roy Drusky - Jody And The Kid
TTITLE2=Billy Walker - From The Bottle To The Bottom
TTITLE3=Johnny Cash - Sunday Mornin' Comin' Down
TTITLE4=Roger Miller - Me And Bobby McGee
TTITLE5=Waylon Jennings - The Taker
TTITLE6=Ray Price - For The Good Times
TTITLE7=Sammi Smith - Help Me Make It Through The Night
TTITLE8=Jerry Lee Lewis - Once More With Feeling
TTITLE9=Bobby Bare - Come Sundown
TTITLE10=Ray Price - I'd Rather Be Sorry
TTITLE11=Brenda Lee - Nobody Wins
TTITLE12=Ronnie Milsap - Please Don't Tell Me How The Story Ends
TTITLE13=Johnny Duncan - Stranger
TTITLE14=Willie Nelson - Help Me Make It Through The Night
TTITLE15=Tompall and The Glaser Brothers - Lovin' Her Was Easier (Than Anything I'll Ever Do Again)
TTITLE16=Hank Williams Jr. - If You Don't Like Hank Williams
TTITLE17=Janis Joplin - Me and Bobby McGee
TTITLE18=Bob Dylan With A Childrens Choir - They Killed Him
EXTD=
EXTT0=
EXTT1=
EXTT2=
EXTT3=
EXTT4=
EXTT5=
EXTT6=
EXTT7=
EXTT8=
EXTT9=
EXTT10=
EXTT11=
EXTT12=
EXTT13=
EXTT14=
EXTT15=
EXTT16=
EXTT17=
EXTT18=
PLAYORDER=
